<?xml version="1.0" encoding="utf-8"?>
<!-- Generator: Adobe Illustrator 27.1.1, SVG Export Plug-In . SVG Version: 6.00 Build 0)  -->
<svg version="1.1" id="Layer_1" xmlns="http://www.w3.org/2000/svg" xmlns:xlink="http://www.w3.org/1999/xlink" x="0px" y="0px"
	 viewBox="0 0 1600 815" style="enable-background:new 0 0 1600 815;" xml:space="preserve">
<style type="text/css">
	.st0{display:none;fill:#EF2A82;}
	.st1{display:none;opacity:7.000000e-02;fill:#8794BA;}
	.st2{opacity:7.000000e-02;clip-path:url(#SVGID_00000168833469192757380050000011624223051918427805_);fill:#8794BA;}
	.st3{display:none;fill:none;}
</style>
<path class="st0" d="M0,544h1600v60L0,815V544z"/>
<path class="st1" d="M1917.9,443.7l-525.5,525.5c-35.1,35.1-92,35.1-127.1,0L969.4,673.3l-358.3,358.3
	c123,219.8,358.1,368.4,627.9,368.4c397.1,0,719-321.9,719-719C1958,597.9,1943.9,518,1917.9,443.7z"/>
<g>
	<defs>
		<path id="SVGID_1_" d="M-340.2-448.7L1842.3,0l-9.5,553.9L0,798L-340.2-448.7z"/>
	</defs>
	<clipPath id="SVGID_00000108296348989134694990000010356166525347074445_">
		<use xlink:href="#SVGID_1_"  style="overflow:visible;"/>
	</clipPath>
	<path style="opacity:7.000000e-02;clip-path:url(#SVGID_00000108296348989134694990000010356166525347074445_);fill:#8794BA;" d="
		M1832.5,275C1702.9,86,1485.4-38,1239-38c-397.1,0-719,321.9-719,719c0,57.8,6.8,114,19.7,167.8l366.1-366.1
		c35.1-35.1,92-35.1,127.1,0l295.9,295.9L1832.5,275z"/>
	<path style="opacity:7.000000e-02;clip-path:url(#SVGID_00000108296348989134694990000010356166525347074445_);fill:#8794BA;" d="
		M502.4-117.3C442.9-204.1,343.1-261,230-261C47.7-261-100-113.3-100,69c0,26.5,3.1,52.3,9,77l168-168c16.1-16.1,42.2-16.1,58.3,0
		l135.8,135.8L502.4-117.3z"/>
	<path style="opacity:7.000000e-02;clip-path:url(#SVGID_00000108296348989134694990000010356166525347074445_);fill:#8794BA;" d="
		M541.6-39.9L300.4,201.3c-16.1,16.1-42.2,16.1-58.3,0L106.2,65.5L-58.2,229.9C-1.7,330.8,106.2,399,230,399
		c182.3,0,330-147.7,330-330C560,30.8,553.5-5.8,541.6-39.9z"/>
</g>
<polygon class="st3" points="0,815 1600,604 1600,1442.4 0,1414.7 "/>
</svg>
